<svg width="121" height="122" viewBox="0 0 121 122" fill="none" xmlns="http://www.w3.org/2000/svg">
<path d="M120.018 20.41C120.018 9.14 110.997 0 99.8732 0H20.1444C9.02106 0 0 9.14 0 20.41C0 27.59 3.66172 33.91 9.19872 37.54C11.3701 38.96 11.3701 42.24 9.19872 43.66C3.66172 47.3 0 53.61 0 60.79C0 67.97 3.66172 74.29 9.19872 77.92C11.3701 79.34 11.3701 82.62 9.19872 84.04C3.66172 87.68 0 93.99 0 101.17C0 112.44 9.02106 121.58 20.1444 121.58H99.8732C110.997 121.58 120.018 112.44 120.018 101.17C120.018 93.99 116.356 87.67 110.819 84.04C108.648 82.62 108.648 79.34 110.819 77.92C116.356 74.28 120.018 67.97 120.018 60.79C120.018 53.61 116.356 47.29 110.819 43.66C108.648 42.24 108.648 38.96 110.819 37.54C116.356 33.9 120.018 27.59 120.018 20.41Z" fill="#07E476"/>
</svg>
