<svg width="120" height="122" viewBox="0 0 120 122" fill="none" xmlns="http://www.w3.org/2000/svg">
<path d="M104.542 63.3912C103.13 61.9612 103.13 59.6311 104.542 58.1912L111.293 51.3512C116.593 45.9812 119.593 38.9111 119.8 31.3511C120.018 23.1311 116.731 15.2012 110.987 9.39115L110.414 8.81115C99.0836 -2.66885 80.6368 -2.66885 69.2963 8.81115L62.5453 15.6512C61.134 17.0812 58.8343 17.0812 57.413 15.6512L50.7903 8.94115C45.0559 3.12115 37.239 -0.21885 29.1161 0.0111502C21.6545 0.22115 14.6765 3.26115 9.37637 8.63115L8.49796 9.52115C-2.83265 21.0012 -2.83265 39.6912 8.49796 51.1812L15.4266 58.2012C16.838 59.6312 16.838 61.9612 15.4266 63.4011L8.67561 70.2411C-2.655 81.7211 -2.655 100.411 8.67561 111.901L9.55402 112.791C15.2193 118.531 22.6612 121.401 30.113 121.401C37.5647 121.401 45.0066 118.531 50.6719 112.791L57.4229 105.951C58.8343 104.521 61.134 104.521 62.5552 105.951L69.1187 112.601C74.6063 118.161 81.91 121.231 89.6776 121.231C97.4452 121.231 104.749 118.171 110.237 112.601L111.115 111.711C122.446 100.231 122.446 81.5412 111.115 70.0512L104.542 63.3912Z" fill="#FB87D2"/>
</svg>
