<svg width="121" height="122" viewBox="0 0 121 122" fill="none" xmlns="http://www.w3.org/2000/svg">
<path d="M120.748 30.75C120.748 13.77 107.157 0 90.3981 0C79.7683 0 70.4215 5.53 65.003 13.91C62.8118 17.29 57.9361 17.29 55.745 13.91C50.3265 5.53 40.9698 0 30.3498 0C13.5908 0 0 13.77 0 30.75V90.85C0 107.83 13.5908 121.6 30.3498 121.6C40.9797 121.6 50.3265 116.07 55.745 107.69C57.9361 104.31 62.8118 104.31 65.003 107.69C70.4215 116.07 79.7781 121.6 90.3981 121.6C107.157 121.6 120.748 107.83 120.748 90.85V30.75Z" fill="#C0EAFF"/>
</svg>
